<?xml version="1.0" encoding="UTF-8" standalone="no"?>
<svg
   xmlns:dc="http://purl.org/dc/elements/1.1/"
   xmlns:cc="http://creativecommons.org/ns#"
   xmlns:rdf="http://www.w3.org/1999/02/22-rdf-syntax-ns#"
   xmlns:svg="http://www.w3.org/2000/svg"
   xmlns="http://www.w3.org/2000/svg"
   width="68.925804mm"
   height="99.423302mm"
   viewBox="0 0 68.925804 99.423302"
   version="1.1"
   id="svg4876">
  <defs
     id="defs4870" />
  <metadata
     id="metadata4873">
    <rdf:RDF>
      <cc:Work
         rdf:about="">
        <dc:format>image/svg+xml</dc:format>
        <dc:type
           rdf:resource="http://purl.org/dc/dcmitype/StillImage" />
        <dc:title></dc:title>
      </cc:Work>
    </rdf:RDF>
  </metadata>
  <g
     id="layer1"
     transform="translate(-22.281853,-25.277417)">
    <path
       style="opacity:0.993;fill:#000000;stroke-width:0"
       id="path2129-1-4-4-6-8"
       d="m 86.628505,41.294032 c -0.49085,-2.70504 -1.82671,-5.30351 -3.66938,-7.34324 -0.67284,-0.74481 -1.449,-1.38936 -2.17347,-2.08405 -3.07146,-2.48057 -6.6247,-4.17868 -10.41501,-5.25661 -2.64018,-0.75082 -6.00483,-1.33711 -8.75861,-1.33269 -7.71346,0.0124 -15.4243,0.28651 -23.13641,0.42975 -1.38734,0.38563 -2.80052,0.68792 -4.16194,1.15687 -4.60019,1.58454 -9.58535,4.26883 -11.45297,9.0857 -0.87147,2.41705 -0.70888,5.10249 0.153,7.28119 1.19478,2.9158 3.44715,5.35016 5.78163,7.37121 2.91045,2.5197 6.27817,4.51896 9.64664,6.34039 1.83195,0.99062 3.72602,1.86192 5.58899,2.79289 5.22628,2.49142 10.59611,4.67479 15.73405,7.35204 2.20314,1.14802 5.74829,3.07304 7.67854,4.76717 0.97165,0.85282 1.72256,1.92838 2.58384,2.89257 0.54539,1.09924 1.28185,2.12293 1.63625,3.29775 1.06036,3.51495 0.26074,7.59414 -2.05344,10.44358 -2.25746,2.77945 -3.86253,3.07185 -7.05695,4.58698 -67.0379499,13.002328 108.361275,-19.62638 -27.91215,4.62032 v 0 c 12.82465,1.35077 6.56199,0.86151 29.90444,0.81099 3.65672,-0.008 8.18678,-0.38877 11.758,-1.26227 1.76624,-0.43199 3.44932,-1.15216 5.1739,-1.72826 3.46992,-2.15801 4.88363,-2.50319 7.18313,-5.94898 2.3969,-3.59183 3.14751,-8.34071 2.05831,-12.51149 -0.35613,-1.36369 -1.11708,-2.58806 -1.67559,-3.8821 -0.87986,-1.15421 -1.61346,-2.43629 -2.63966,-3.46263 -1.92044,-1.92081 -5.40834,-3.89529 -7.72604,-5.15252 -5.09905,-2.76594 -10.46934,-4.95909 -15.73667,-7.37179 -5.22171,-2.49175 -10.53167,-4.88738 -15.15441,-8.43286 -3.49278,-2.8458 -7.87043,-7.00035 -5.8902,-11.48973 0.90938,-1.89399 2.60265,-3.35239 4.33247,-4.44759 3.32502,-2.10509 7.19145,-3.1066 11.02687,-3.73466 -4.80302,-0.11666 -9.60633,-0.22484 -14.4092,-0.34999 -1.46137,-0.0381 2.92835,-0.0379 4.38478,0.0888 4.04813,0.3521 8.1478,1.457 11.78339,3.28598 0.97142,0.48871 1.85893,1.12903 2.78839,1.69355 0.71375,0.57933 1.46609,1.11417 2.14132,1.73797 1.27098,1.17422 1.61085,1.69412 2.41474,3.11833 0.51504,0.91238 0.98865,1.86989 1.19035,2.90563 z" />
    <path
       style="opacity:0.993;fill:#000000;stroke-width:0"
       id="path2131-5-6-8-9-6"
       d="m 31.310785,70.939372 c 0.1736,18.69785 -0.18155,36.392428 -0.10408,53.761348 l 15.81152,-0.008 v 0 c -0.0684,-11.5519 -0.056,-21.58257 0.1007,-32.083168 0.10887,-7.25813 0.33635,-14.52508 0.003,-21.78088 l -15.81107,0.11055 z" />
  </g>
</svg>
