<?xml version="1.0" standalone="no"?>
<!DOCTYPE svg PUBLIC "-//W3C//DTD SVG 20010904//EN"
 "http://www.w3.org/TR/2001/REC-SVG-20010904/DTD/svg10.dtd">
<svg version="1.0" xmlns="http://www.w3.org/2000/svg"
 width="192.000000pt" height="192.000000pt" viewBox="0 0 192.000000 192.000000"
 preserveAspectRatio="xMidYMid meet">

<g transform="translate(0.000000,192.000000) scale(0.100000,-0.100000)"
fill="#000000" stroke="none">
<path d="M845 1909 c-215 -28 -408 -122 -560 -274 -373 -374 -373 -976 0
-1350 374 -373 976 -373 1350 0 373 374 373 976 0 1350 -157 157 -345 246
-575 275 -95 11 -116 11 -215 -1z m-70 -563 l60 -21 3 -48 c2 -27 -1 -47 -7
-47 -6 0 -34 10 -63 21 -76 31 -225 33 -264 4 -38 -29 -57 -87 -44 -135 16
-58 53 -82 182 -115 145 -37 207 -86 228 -179 24 -109 -20 -205 -117 -252 -54
-27 -65 -29 -173 -28 -94 1 -127 6 -180 25 l-65 24 -3 54 c-3 48 -1 53 15 46
89 -37 128 -47 203 -52 94 -6 157 6 184 36 25 27 36 85 25 126 -12 44 -48 65
-178 105 -155 48 -202 82 -227 168 -31 107 12 223 100 269 71 37 215 37 321
-1z m663 2 c58 -14 135 -87 145 -137 10 -51 8 -141 -4 -186 -6 -22 -28 -56
-48 -76 -51 -52 -117 -69 -258 -69 l-113 0 0 -160 0 -160 -55 0 -55 0 0 400 0
400 171 0 c97 0 190 -5 217 -12z"/>
<path d="M1160 1125 l0 -147 126 4 126 3 34 37 c31 34 34 44 34 95 0 116 -40
145 -207 151 l-113 5 0 -148z"/>
</g>
</svg>
